<svg width="22" height="19" viewBox="0 0 22 19" fill="none" xmlns="http://www.w3.org/2000/svg">
<path d="M6.64807 15.2883C6.64751 15.9378 6.65316 16.5873 6.64638 17.2367C6.63678 18.1839 5.89524 18.9446 4.97636 18.9599C4.04731 18.9757 3.24251 18.1952 3.23348 17.2446C3.22218 16.0496 3.22275 14.854 3.23517 13.6584C3.23799 13.4025 3.14311 13.3178 2.90591 13.28C1.50133 13.0574 0.57454 12.2628 0.117641 10.9175C0.0351847 10.6741 0.00355755 10.4234 0.00355755 10.1675C0.00355755 9.217 -0.00547877 8.26593 0.00525186 7.31542C0.022195 5.80297 1.2709 4.39782 2.77545 4.20976C3.83383 4.0776 4.89955 4.17248 5.96188 4.16062C6.14148 4.15893 6.3318 4.21597 6.43854 4.37015C6.5803 4.5746 6.71698 4.52038 6.89375 4.43227C9.11725 3.32476 11.3407 2.21612 13.571 1.12272C14.2877 0.771437 14.9717 0.342212 15.7363 0.0987963C16.8501 -0.255314 18.0519 0.377228 18.38 1.45933C18.4326 1.63271 18.4472 1.80892 18.4467 1.98908C18.445 2.77016 18.4636 3.55236 18.4376 4.33231C18.4269 4.65536 18.5286 4.79034 18.8386 4.87731C20.0117 5.20657 20.8532 5.94755 21.3733 7.04377C22.3899 9.18594 21.2688 11.7878 19.0143 12.5401C18.4467 12.7293 18.4467 12.7293 18.4467 13.3178C18.4467 14.0051 18.4218 14.693 18.4518 15.3792C18.5195 16.9504 16.8467 17.8331 15.5867 17.3135C14.7706 16.9769 13.9918 16.5505 13.1988 16.158C11.116 15.1273 9.03536 14.0927 6.95305 13.0597C6.66332 12.9162 6.64864 12.9253 6.64864 13.2545C6.64807 13.9328 6.64864 14.6106 6.64807 15.2883ZM17.0088 8.74938C17.0088 6.52927 17.0093 4.30859 17.0082 2.08848C17.0082 1.73155 16.8868 1.55703 16.5801 1.48813C16.3559 1.4373 16.1311 1.4486 15.9188 1.55364C12.921 3.04464 9.9243 4.53789 6.92255 6.01984C6.71076 6.12433 6.64243 6.24575 6.64412 6.47279C6.65259 7.94062 6.65993 9.40846 6.64017 10.8757C6.63565 11.2084 6.74691 11.3716 7.03946 11.5145C9.20196 12.5723 11.3554 13.6476 13.5123 14.7167C14.338 15.1262 15.1575 15.5503 15.9956 15.9332C16.5733 16.197 17.0088 15.892 17.0088 15.2696C17.0093 13.0958 17.0088 10.9226 17.0088 8.74938ZM5.21243 8.75672C5.21243 7.80734 5.20622 6.85796 5.21695 5.90915C5.21977 5.66234 5.13619 5.57819 4.89051 5.58497C4.35511 5.59965 3.81914 5.58271 3.28318 5.59344C2.3417 5.61151 1.5674 6.29319 1.44824 7.22393C1.33698 8.09368 1.42 8.96964 1.40249 9.84277C1.39741 10.0975 1.44993 10.3482 1.52505 10.5911C1.74022 11.292 2.4332 11.8087 3.16457 11.855C3.73782 11.8912 4.31106 11.8692 4.88317 11.8912C5.15087 11.9014 5.21977 11.8003 5.21695 11.5484C5.20565 10.6182 5.21243 9.68746 5.21243 8.75672ZM18.4467 8.71266C18.4467 9.43726 18.4461 10.1624 18.4472 10.887C18.4478 11.2101 18.4879 11.2383 18.7867 11.0937C19.7807 10.612 20.3195 9.79589 20.311 8.7121C20.3025 7.62887 19.7609 6.81673 18.7466 6.36209C18.4766 6.24123 18.4484 6.26043 18.4478 6.5671C18.4456 7.2821 18.4467 7.99767 18.4467 8.71266ZM4.66856 15.364C4.66856 15.9468 4.66743 16.5302 4.66912 17.1131C4.66969 17.3039 4.69792 17.4864 4.94755 17.4841C5.17911 17.4818 5.21186 17.3135 5.21186 17.13C5.21243 15.9547 5.20961 14.7789 5.21525 13.6036C5.21638 13.3969 5.14014 13.3229 4.93343 13.3212C4.71374 13.3195 4.66291 13.42 4.66573 13.6149C4.67251 14.1977 4.66799 14.7806 4.66856 15.364Z" fill="white"/>
</svg>
