<svg width="16" height="16" viewBox="0 0 16 16" fill="none" xmlns="http://www.w3.org/2000/svg">
<path d="M7.33516 0C7.7721 0 8.20903 0 8.64597 0C9.01602 0.0499355 9.38742 0.093629 9.75257 0.177003C14.0354 1.15342 16.785 5.38634 15.7997 9.75748C14.8331 14.0457 10.5805 16.8135 6.22053 15.7885C3.18205 15.0743 1.21495 13.1397 0.28267 10.1605C0.128405 9.66786 0.0615276 9.15736 0 8.64641C0 8.20948 0 7.77254 0 7.33561C0.0494896 6.9651 0.0851578 6.59237 0.178341 6.22945C0.955907 3.20033 2.83696 1.21628 5.82194 0.282224C6.31416 0.12796 6.82466 0.0610818 7.33516 0ZM2.31308 7.98209C2.29926 9.0829 2.63811 10.1373 3.1446 10.9604C3.21994 11.083 3.26408 11.0781 3.35816 10.9836C5.89684 8.44132 8.43731 5.90041 10.98 3.36262C11.0843 3.25873 11.0781 3.21326 10.9528 3.13791C9.69996 2.38397 8.35393 2.14812 6.92052 2.41072C4.26591 2.8967 2.28499 5.29583 2.31308 7.98209ZM7.98789 13.6707C8.30534 13.6707 8.62189 13.6582 8.93443 13.5976C10.964 13.2053 12.4308 12.0737 13.2284 10.1712C13.9636 8.41814 13.8112 6.68734 12.8441 5.03947C12.7487 4.87718 12.7469 4.87718 12.6167 5.00737C10.0798 7.54427 7.54293 10.0812 5.00603 12.6181C4.87718 12.7469 4.87762 12.7483 5.03991 12.8468C5.94544 13.3983 6.92721 13.6756 7.98789 13.6707Z" fill="white"/>
</svg>
