<svg width="20" height="19" viewBox="0 0 20 19" fill="none" xmlns="http://www.w3.org/2000/svg">
<path d="M10.0444 18.6316C8.12067 18.6316 6.20378 18.6385 4.28006 18.6316C2.85433 18.6248 1.79697 17.9904 1.1762 16.6875C0.964724 16.2372 0.903329 15.7529 0.896507 15.2617C0.896507 12.8127 0.896507 10.3706 0.896507 7.92841C0.896507 6.65958 1.41496 5.68408 2.47232 4.9678C4.34828 3.70579 6.20378 2.41649 8.07292 1.14084C9.40997 0.226733 10.7402 0.25402 12.0704 1.16813C13.9191 2.4506 15.7746 3.71943 17.6437 4.98145C18.667 5.67726 19.1854 6.62547 19.1923 7.85337C19.1991 10.3296 19.2059 12.8127 19.1923 15.289C19.1786 16.8648 18.2713 18.0791 16.8251 18.502C16.4772 18.6043 16.1089 18.6316 15.7473 18.6316C13.8441 18.6385 11.9408 18.6385 10.0444 18.6316ZM10.058 15.3436C10.7743 15.3436 11.4906 15.3504 12.2 15.3436C12.5343 15.3436 12.7458 15.1799 12.7185 14.9411C12.6912 14.6273 12.4729 14.5454 12.1864 14.5454C10.7538 14.5454 9.32811 14.5454 7.89555 14.5454C7.61586 14.5454 7.39075 14.6273 7.35664 14.9343C7.32935 15.1867 7.54765 15.3436 7.90237 15.3436C8.62547 15.3504 9.34175 15.3504 10.058 15.3436Z" fill="black"/>
</svg>
