<svg width="20" height="19" viewBox="0 0 20 19" fill="none" xmlns="http://www.w3.org/2000/svg">
<path d="M10.0463 18.6316C8.1226 18.6316 6.20571 18.6385 4.28199 18.6316C2.85626 18.6248 1.7989 17.9904 1.17813 16.6875C0.966654 16.2372 0.905259 15.7529 0.898438 15.2617C0.898438 12.8127 0.898438 10.3706 0.898438 7.92841C0.898438 6.65958 1.41689 5.68408 2.47425 4.9678C4.35021 3.70579 6.20571 2.41649 8.07485 1.14084C9.4119 0.226733 10.7421 0.25402 12.0724 1.16813C13.921 2.4506 15.7765 3.71943 17.6457 4.98145C18.6689 5.67726 19.1874 6.62547 19.1942 7.85337C19.201 10.3296 19.2078 12.8127 19.1942 15.289C19.1805 16.8648 18.2733 18.0791 16.8271 18.502C16.4792 18.6043 16.1108 18.6316 15.7492 18.6316C13.846 18.6385 11.9427 18.6385 10.0463 18.6316ZM10.06 15.3436C10.7762 15.3436 11.4925 15.3504 12.202 15.3436C12.5362 15.3436 12.7477 15.1799 12.7204 14.9411C12.6931 14.6273 12.4748 14.5454 12.1883 14.5454C10.7558 14.5454 9.33004 14.5454 7.89748 14.5454C7.61779 14.5454 7.39268 14.6273 7.35857 14.9343C7.33128 15.1867 7.54958 15.3436 7.9043 15.3436C8.6274 15.3504 9.34368 15.3504 10.06 15.3436Z" fill="white"/>
</svg>
