<svg width="15" height="18" viewBox="0 0 15 18" fill="none" xmlns="http://www.w3.org/2000/svg">
<path d="M7.12757 5.61084C8.92123 5.61084 10.7149 5.61084 12.5086 5.61084C13.1961 5.61084 13.5026 5.91726 13.4428 6.60483C13.3157 8.06966 13.1588 9.52701 13.0168 10.9844C12.8822 12.4342 12.7477 13.8841 12.6132 15.334C12.5833 15.618 12.5683 15.9095 12.516 16.186C12.3292 17.2323 11.4548 17.9871 10.3935 17.9946C8.22619 18.0021 6.05884 18.0021 3.8915 17.9946C2.75551 17.9871 1.8512 17.1576 1.73163 16.0216C1.5971 14.7585 1.485 13.4955 1.36542 12.2325C1.19353 10.4238 1.01416 8.61523 0.842269 6.81409C0.834795 6.71693 0.827321 6.6123 0.827321 6.51515C0.804901 5.94715 1.11132 5.61831 1.67184 5.61831C3.48792 5.61084 5.30401 5.61084 7.12757 5.61084ZM6.014 14.8034C6.02895 14.355 5.93927 13.9065 5.91684 13.4656C5.83463 12.0755 5.73748 10.6854 5.65527 9.29533C5.63285 8.94407 5.64032 8.60028 5.60295 8.24902C5.55811 7.80808 5.19938 7.50914 4.8257 7.55398C4.4296 7.60629 4.16055 7.96502 4.19044 8.38355C4.2876 9.82595 4.37728 11.2609 4.46697 12.7033C4.51928 13.5702 4.56412 14.4446 4.62391 15.3116C4.65381 15.745 4.99012 16.0739 5.3638 16.0515C5.75242 16.029 6.00653 15.7376 6.014 15.2817C6.014 15.1322 6.014 14.9678 6.014 14.8034ZM8.27103 14.766C8.26356 14.766 8.26356 14.766 8.25608 14.766C8.25608 14.9304 8.25608 15.0874 8.25608 15.2518C8.25608 15.7376 8.49524 16.0365 8.89881 16.0589C9.28744 16.0814 9.61628 15.7525 9.64617 15.2817C9.73586 13.8916 9.81059 12.5015 9.8928 11.1114C9.94512 10.2295 10.0049 9.34764 10.0722 8.46576C10.1095 7.97997 9.87785 7.61377 9.45186 7.55398C9.04828 7.50166 8.69702 7.8305 8.65966 8.31628C8.52513 10.4687 8.39808 12.6136 8.27103 14.766Z" fill="white"/>
<path d="M7.12567 4.91576C5.07042 4.91576 3.01518 4.91576 0.959943 4.91576C0.24995 4.91576 0.0033216 4.66166 0.0033216 3.94419C0.0033216 3.6602 -0.004152 3.36873 0.0033216 3.08473C0.0107952 2.53916 0.287318 2.25516 0.832892 2.24769C1.78951 2.24021 2.75361 2.23274 3.71023 2.24769C4.01665 2.25516 4.12128 2.16548 4.12128 1.85159C4.13622 0.797807 4.95085 0.0130788 6.0121 0.0056052C6.75946 -0.0018684 7.50682 -0.0018684 8.25418 0.0056052C9.31543 0.0130788 10.1226 0.797807 10.1375 1.85906C10.1375 2.18042 10.2571 2.25516 10.556 2.25516C11.4753 2.24021 12.402 2.24769 13.3213 2.24769C13.9939 2.24769 14.2555 2.50926 14.2555 3.16694C14.2555 3.46588 14.263 3.76483 14.2555 4.06377C14.248 4.63177 13.9715 4.91576 13.4035 4.91576C11.3109 4.92324 9.21827 4.91576 7.12567 4.91576ZM7.13314 2.24769C7.52177 2.24769 7.90292 2.25516 8.29155 2.24769C8.60544 2.24021 8.68765 2.09821 8.5606 1.81422C8.46344 1.59748 8.2766 1.55264 8.06734 1.56011C7.50682 1.56011 6.9463 1.56011 6.39325 1.56011C6.2662 1.56011 6.13915 1.55264 6.01957 1.57506C5.77294 1.62738 5.66831 1.7918 5.67579 2.03095C5.68326 2.31495 5.89999 2.24021 6.05694 2.24769C6.4082 2.25516 6.77441 2.24769 7.13314 2.24769Z" fill="white"/>
</svg>
