<svg width="19" height="18" viewBox="0 0 19 18" fill="none" xmlns="http://www.w3.org/2000/svg">
<path d="M10.0625 10.393C10.1973 10.3817 10.2478 10.2807 10.3152 10.2133C10.944 9.58446 11.5728 8.95564 12.2017 8.33243C12.6733 7.86642 13.2853 7.83835 13.7232 8.26505C14.133 8.6693 14.133 9.31497 13.6839 9.76974C12.3925 11.0779 11.09 12.3861 9.77618 13.6774C9.30456 14.1434 8.71504 14.1491 8.24903 13.6943C6.92401 12.3861 5.61021 11.0723 4.30203 9.74728C3.94832 9.39357 3.89217 8.93879 4.08868 8.53455C4.27396 8.15276 4.6782 7.93941 5.13298 7.9731C5.40248 7.99556 5.6046 8.1303 5.78988 8.31558C6.42993 8.95564 7.06999 9.60131 7.71565 10.2414C7.77741 10.3031 7.83356 10.4323 7.92901 10.3817C8.01884 10.3368 7.97392 10.2133 7.97392 10.1235C7.97392 7.11408 7.97392 4.09908 7.97954 1.0897C7.97954 0.404732 8.40063 -0.0163564 9.05191 0.000487116C9.5909 0.0117161 10.012 0.415961 10.0344 0.954955C10.0457 1.30867 10.0401 1.668 10.0401 2.02171C10.0401 4.70545 10.0401 7.38919 10.0401 10.0729C10.0345 10.174 10.0176 10.2863 10.0625 10.393Z" fill="white"/>
<path d="M8.98322 17.995C7.3101 17.995 5.63697 18.0007 3.95823 17.995C1.76296 17.9894 0.011229 16.2265 0 14.0312C0 13.6943 0 13.3575 0 13.0206C0.00561451 12.4086 0.415474 11.9651 0.988155 11.9538C1.57768 11.9426 2.03245 12.3805 2.05491 12.9925C2.06614 13.3182 2.05491 13.6494 2.06053 13.975C2.08299 15.098 2.89709 15.9345 4.01999 15.9401C7.33817 15.9514 10.662 15.9514 13.9801 15.9401C15.1143 15.9345 15.934 15.098 15.9508 13.9582C15.9565 13.6326 15.9452 13.3013 15.9565 12.9757C15.9789 12.4704 16.3102 12.0773 16.7874 11.9763C17.2422 11.8808 17.697 12.0998 17.9103 12.5265C17.944 12.5939 17.9833 12.6669 17.9889 12.7342C18.0956 14.1603 18.0507 15.5527 16.9951 16.6869C16.2259 17.5066 15.2883 17.9894 14.1486 17.995C12.4249 18.0063 10.7013 17.995 8.98322 17.995Z" fill="white"/>
</svg>
