<svg width="18" height="22" viewBox="0 0 18 22" fill="none" xmlns="http://www.w3.org/2000/svg">
<path d="M17.2959 6.455L12.0459 1.205C11.9415 1.10039 11.8174 1.0174 11.6808 0.96078C11.5442 0.904156 11.3978 0.875007 11.25 0.875H2.25C1.75272 0.875 1.27581 1.07254 0.924175 1.42417C0.572544 1.77581 0.375 2.25272 0.375 2.75V19.25C0.375 19.7473 0.572544 20.2242 0.924175 20.5758C1.27581 20.9275 1.75272 21.125 2.25 21.125H15.75C16.2473 21.125 16.7242 20.9275 17.0758 20.5758C17.4275 20.2242 17.625 19.7473 17.625 19.25V7.25C17.625 6.95187 17.5066 6.66593 17.2959 6.455ZM12 4.34375L14.1562 6.5H12V4.34375ZM2.625 18.875V3.125H9.75V7.625C9.75 7.92337 9.86853 8.20952 10.0795 8.4205C10.2905 8.63147 10.5766 8.75 10.875 8.75H15.375V18.875H2.625Z" fill="white"/>
</svg>
