<svg width="31" height="23" viewBox="0 0 31 23" fill="none" xmlns="http://www.w3.org/2000/svg">
<path d="M25.245 2.85444C24.587 2.85444 23.9831 2.85444 23.3793 2.85444C21.7753 2.85351 20.1714 2.86098 18.5674 2.8479C17.9009 2.84229 17.4326 2.50112 17.2373 1.93561C17.0363 1.35328 17.1887 0.743842 17.6439 0.366215C17.942 0.118514 18.2935 0.00260881 18.6805 0.00260881C21.9978 0.00167409 25.3142 -0.00393423 28.6315 0.00634769C29.5746 0.00915186 30.1448 0.599895 30.1458 1.53181C30.1495 4.84913 30.1486 8.16552 30.1458 11.4828C30.1448 12.4391 29.5812 13.0709 28.7484 13.0663C27.9174 13.0616 27.321 12.4288 27.3145 11.4857C27.3005 9.53956 27.3108 7.59254 27.3061 5.64552C27.3051 5.46699 27.3612 5.27537 27.2416 5.10244C27.0434 5.12488 26.9593 5.29126 26.8434 5.40623C24.1953 8.04307 21.5501 10.6837 18.9039 13.3233C18.7496 13.4766 18.5964 13.6346 18.4262 13.7692C17.7336 14.3179 17.0447 14.2917 16.4156 13.6748C15.5594 12.8354 14.706 11.9923 13.8751 11.1286C13.6068 10.85 13.4526 10.851 13.1759 11.1286C9.66136 14.6609 6.13372 18.1811 2.6117 21.7059C2.28268 22.0349 1.93309 22.2976 1.43769 22.292C0.85162 22.2854 0.416975 22.0265 0.158057 21.5087C-0.103665 20.9862 -0.03543 20.4739 0.322568 20.0187C0.543162 19.7383 0.794602 19.4803 1.04791 19.227C4.70173 15.5694 8.35836 11.9138 12.0141 8.25806C12.0907 8.18141 12.1673 8.1029 12.2468 8.02812C13.1974 7.13266 13.8919 7.14107 14.8182 8.06177C15.6015 8.84133 16.3867 9.62088 17.1616 10.4079C17.355 10.6042 17.5093 10.6855 17.7411 10.4528C20.2153 7.97204 22.696 5.49783 25.173 3.01989C25.1945 3.00026 25.1992 2.96474 25.245 2.85444Z" fill="white"/>
</svg>
