<svg width="19" height="19" viewBox="0 0 19 19" fill="none" xmlns="http://www.w3.org/2000/svg">
<path d="M1.9836 9.41615C1.9836 10.9223 1.97659 12.4285 1.9836 13.9346C1.9906 15.6649 3.12547 16.8138 4.85579 16.8138C7.88911 16.8208 10.9294 16.8208 13.9628 16.8138C15.6721 16.8138 16.8139 15.6649 16.8209 13.9556C16.8279 11.9241 16.8209 9.89252 16.8209 7.86097C16.8209 7.66482 16.8279 7.46166 16.877 7.27252C16.9891 6.84519 17.3463 6.57198 17.8087 6.57198C18.271 6.57198 18.6353 6.83819 18.7404 7.27252C18.7824 7.44065 18.7964 7.61578 18.7964 7.79091C18.8034 9.83648 18.8034 11.875 18.7964 13.9206C18.7824 16.2604 17.3744 18.0888 15.1747 18.6492C14.7684 18.7543 14.341 18.7893 13.9277 18.7893C10.9154 18.7963 7.90312 18.8033 4.89082 18.7893C2.50199 18.7823 0.645576 17.3252 0.12718 15.0625C0.0431158 14.7052 0.00808908 14.3199 0.00808908 13.9556C0.00108373 10.9223 -0.00592162 7.88198 0.00808908 4.84867C0.0220998 2.47385 1.49322 0.624438 3.76296 0.120053C4.12724 0.0429938 4.50553 0.00796701 4.87681 0.00796701C6.92237 -0.00604369 8.96093 0.000961662 11.0065 0.00796701C11.1816 0.00796701 11.3568 0.0219777 11.5249 0.0640098C11.9592 0.16909 12.2254 0.526363 12.2254 0.988716C12.2254 1.45107 11.9592 1.80834 11.5319 1.92043C11.3357 1.96947 11.1396 1.97647 10.9434 1.97647C8.87686 1.97647 6.81029 1.96947 4.74371 1.97647C3.37766 1.99048 2.29884 2.87316 2.03264 4.16915C1.9836 4.40733 1.9836 4.65952 1.9836 4.8977C1.97659 6.40385 1.9836 7.91 1.9836 9.41615Z" fill="white"/>
<path d="M18.7781 2.24948C18.7641 2.85194 18.568 3.38435 18.1337 3.81868C16.4874 5.47194 14.7921 7.08317 13.2089 8.79248C12.1861 9.89232 11.0442 10.6769 9.58012 10.9992C9.2859 11.0622 9.00568 11.1953 8.71146 11.2584C7.98991 11.4265 7.33841 10.81 7.54156 10.1025C7.81477 9.14975 8.15803 8.21804 8.46627 7.27932C8.51531 7.13221 8.62039 7.02012 8.73247 6.91504C10.7991 4.84146 12.8586 2.76087 14.9462 0.701296C15.906 -0.258437 17.3421 -0.202395 18.2177 0.771349C18.589 1.19167 18.7641 1.68905 18.7781 2.24948Z" fill="white"/>
</svg>
