<svg width="29" height="25" viewBox="0 0 29 25" fill="none" xmlns="http://www.w3.org/2000/svg">
<path d="M7.52709 7.32271C5.87305 7.32271 4.21901 7.32601 2.56607 7.3216C1.46006 7.3183 0.673841 6.64124 0.603268 5.64661C0.532696 4.64977 1.27481 3.80952 2.35986 3.67389C2.59584 3.64411 2.83623 3.64632 3.07551 3.64632C6.25458 3.64411 9.43365 3.6375 12.6127 3.65404C13.0891 3.65624 13.3648 3.53054 13.5985 3.07512C14.5744 1.16967 16.2141 0.162906 18.3081 0.148571C20.3812 0.135339 22.0286 1.10681 23.0133 2.9825C23.2912 3.51179 23.6088 3.6772 24.1701 3.65624C25.1426 3.61875 26.1185 3.61986 27.0911 3.65624C28.5996 3.71248 29.4608 5.17686 28.7429 6.43063C28.4055 7.02057 27.8884 7.32271 27.2025 7.32271C26.1185 7.32271 25.0335 7.34035 23.9506 7.31609C23.5426 7.30727 23.3232 7.45393 23.1468 7.81782C22.3065 9.55015 20.9039 10.5459 19.0139 10.848C16.8934 11.1877 14.5612 9.95815 13.5941 7.95565C13.3559 7.46165 13.0748 7.30286 12.5433 7.31278C10.8716 7.34366 9.19988 7.32271 7.52709 7.32271Z" fill="white"/>
<path d="M21.8688 21.5045C20.2147 21.5045 18.5607 21.5144 16.9078 21.4979C16.4931 21.4935 16.2461 21.6148 16.0477 22.0095C15.0641 23.9657 13.4067 25.0023 11.2664 25.0001C9.14919 24.9979 7.50397 23.9712 6.52147 22.0404C6.31527 21.6346 6.06496 21.4869 5.62167 21.4979C4.59286 21.5222 3.56294 21.5299 2.53523 21.4968C0.995866 21.4461 0.125839 19.953 0.881186 18.6926C1.21861 18.1303 1.71923 17.8325 2.38416 17.8314C3.46811 17.8303 4.55316 17.8094 5.63601 17.8392C6.07157 17.8513 6.28991 17.687 6.47847 17.3077C7.46428 15.3338 9.11391 14.2576 11.284 14.2675C13.4729 14.2774 15.1368 15.3603 16.1028 17.3738C16.2914 17.7664 16.5483 17.8358 16.9309 17.8347C20.3305 17.8259 23.7301 17.8336 27.1297 17.827C27.8851 17.8259 28.4431 18.1358 28.786 18.804C29.13 19.4722 29.0573 20.125 28.6261 20.7271C28.2027 21.3182 27.5763 21.5012 26.8838 21.5034C25.2122 21.5078 23.5394 21.5045 21.8677 21.5045C21.8688 21.5034 21.8688 21.5034 21.8688 21.5045Z" fill="white"/>
</svg>
