<svg width="14" height="14" viewBox="0 0 14 14" fill="none" xmlns="http://www.w3.org/2000/svg">
<path d="M1.46912 7.63392C1.46912 8.9187 1.46783 10.2035 1.46955 11.4883C1.47041 12.1158 1.76157 12.4048 2.39384 12.4052C4.9634 12.4061 7.53339 12.3949 10.103 12.4126C10.8046 12.4173 11.0583 11.9267 11.0574 11.4478C11.0548 9.84729 11.0557 8.24638 11.0578 6.64589C11.0583 6.31684 11.2658 6.04851 11.5734 5.95936C11.8658 5.87451 12.1768 5.99812 12.3607 6.26731C12.449 6.39695 12.4899 6.5408 12.4899 6.6937C12.4916 8.33726 12.5201 9.98167 12.4813 11.6248C12.4503 12.9389 11.4437 13.8675 10.1249 13.8705C7.54072 13.8765 4.95694 13.8765 2.37273 13.8705C1.00526 13.867 0.00732192 12.8656 0.00430701 11.4964C-0.0012921 8.91224 -0.0017228 6.32847 0.00473771 3.74426C0.00818332 2.38755 1.00698 1.39048 2.3624 1.38359C3.7191 1.3767 5.07581 1.38187 6.43209 1.38187C6.61385 1.38187 6.78914 1.40125 6.94721 1.50548C7.22716 1.69025 7.35594 2.0094 7.2655 2.30701C7.1716 2.61582 6.90758 2.8161 6.57465 2.81696C5.21794 2.81911 3.86124 2.81782 2.50496 2.81955C2.39771 2.81955 2.28918 2.82385 2.18409 2.84323C1.71419 2.93153 1.47127 3.21751 1.47041 3.69344C1.4674 5.00665 1.46955 6.32028 1.46912 7.63392Z" fill="#939393"/>
<path d="M11.3118 1.49746C11.2382 1.44491 11.1572 1.46817 11.0814 1.46817C10.4285 1.46602 9.77553 1.47032 9.12259 1.46559C8.69619 1.46257 8.43562 1.28641 8.32234 0.940992C8.21036 0.600738 8.38049 0.223874 8.70998 0.0843269C8.85038 0.0244595 8.99725 -9.05064e-05 9.15058 -9.05064e-05C10.4276 0.000770896 11.7051 -0.00138261 12.9821 0.0012016C13.5756 0.0024937 13.8702 0.297093 13.8711 0.89103C13.8737 2.16806 13.8732 3.44552 13.8711 4.72255C13.8702 5.16789 13.6996 5.43148 13.3512 5.54777C13.0015 5.66449 12.6233 5.48963 12.4833 5.14722C12.4226 4.9982 12.4045 4.84357 12.405 4.68378C12.4067 4.05238 12.4067 3.42097 12.4045 2.78956C12.4041 2.71419 12.4286 2.63279 12.3744 2.56043C12.2852 2.57249 12.2452 2.64743 12.1922 2.70041C10.4255 4.46499 8.66001 6.23086 6.89457 7.99631C6.84892 8.04196 6.80412 8.08848 6.75675 8.13241C6.43975 8.42658 6.02499 8.4283 5.73426 8.13715C5.44354 7.84599 5.43923 7.4239 5.74245 7.11638C6.38677 6.46215 7.03929 5.81567 7.68878 5.16617C8.85081 4.00414 10.0128 2.84254 11.1736 1.67964C11.2261 1.62667 11.3024 1.58747 11.3118 1.49746Z" fill="#939393"/>
</svg>
