<svg width="16" height="18" viewBox="0 0 16 18" fill="none" xmlns="http://www.w3.org/2000/svg">
<path d="M8.23995 18C6.92318 18 5.59562 18 4.27885 18C2.56274 18 1.23518 16.8668 0.965349 15.1614C0.943763 15.0211 0.943763 14.87 0.943763 14.7297C0.932969 13.1215 0.954556 11.5133 0.932969 9.90515C0.911383 8.50204 1.88277 7.02338 3.5665 6.68879C3.71761 6.65641 3.76078 6.59165 3.76078 6.45134C3.76078 5.8793 3.76078 5.29647 3.76078 4.72443C3.76078 2.41469 5.29341 0.601435 7.55998 0.202088C9.30847 -0.110914 11.1973 0.806506 12.1039 2.37152C12.514 3.09466 12.7083 3.86097 12.7191 4.69205C12.7299 5.27488 12.7191 5.86851 12.7191 6.45134C12.7191 6.59165 12.7515 6.65641 12.9134 6.68879C14.3273 6.9802 15.3527 8.08111 15.5253 9.50581C15.5361 9.63532 15.5361 9.75405 15.5361 9.88357C15.5361 11.4917 15.5361 13.1107 15.5361 14.7189C15.5361 16.5537 14.1006 17.9892 12.255 17.9892C11.5858 17.9892 10.9167 17.9892 10.2475 17.9892C9.5783 18 8.90913 18 8.23995 18ZM8.22916 6.63482C9.09261 6.63482 9.94527 6.63482 10.8087 6.63482C10.9814 6.63482 11.057 6.59165 11.0462 6.40816C11.0354 5.80375 11.0354 5.21012 11.0462 4.6057C11.057 3.04069 9.67544 1.64837 7.95933 1.83186C6.52383 1.97217 5.44452 3.13783 5.43372 4.57332C5.42293 5.18854 5.43372 5.80375 5.43372 6.40816C5.43372 6.57006 5.48769 6.62403 5.64959 6.62403C6.50225 6.62403 7.3657 6.63482 8.22916 6.63482ZM9.82654 11.5025C9.82654 10.6175 9.13578 9.91595 8.23995 9.91595C7.34412 9.91595 6.65335 10.6067 6.64256 11.4917C6.64256 12.3876 7.33332 13.0891 8.21836 13.0891C9.12499 13.0891 9.82654 12.3984 9.82654 11.5025Z" fill="white"/>
</svg>
