<svg width="16" height="19" viewBox="0 0 16 19" fill="none" xmlns="http://www.w3.org/2000/svg">
<path d="M15.464 11.041C15.464 12.8537 15.4706 14.6664 15.464 16.4791C15.4574 17.6062 14.8114 18.5159 13.7699 18.8652C13.4535 18.9707 13.1239 18.9971 12.7943 18.9971C9.41944 18.9971 6.05111 19.0037 2.6762 18.9971C1.02829 18.9971 0 17.9622 0 16.3209C0 11.7529 0 7.18487 0 2.61028C0 1.4172 0.613021 0.520739 1.66768 0.145016C1.99067 0.0329581 2.33344 0.00659163 2.6762 0C5.036 0 7.4024 0.00659163 9.7622 0C10.3686 0 10.863 0.197749 11.2915 0.632796C12.4648 1.82588 13.6447 3.00578 14.8312 4.1725C15.2662 4.60096 15.4706 5.08874 15.464 5.70176C15.4574 7.4815 15.464 9.26124 15.464 11.041ZM7.73198 9.22828C8.47024 9.22828 9.20191 9.22828 9.94018 9.22828C10.3818 9.22828 10.8169 9.23487 11.2585 9.22169C11.6276 9.2085 11.8649 8.95802 11.8649 8.62185C11.8649 8.28568 11.621 8.03519 11.2651 8.00883C11.186 8.00224 11.1135 8.00224 11.0344 8.00224C8.83937 8.00224 6.64436 8.00224 4.44935 8.00224C4.3307 8.00224 4.20546 7.99564 4.08681 8.02201C3.67813 8.11429 3.48038 8.56912 3.69131 8.92506C3.83633 9.17555 4.07363 9.22828 4.34388 9.22828C5.47105 9.22828 6.59822 9.22828 7.73198 9.22828ZM7.77153 11.0871C6.78278 11.0871 5.79404 11.0871 4.81189 11.0871C4.60096 11.0871 4.39662 11.0805 4.18568 11.0937C3.84292 11.1201 3.61221 11.364 3.61221 11.6935C3.61221 12.0034 3.82974 12.2538 4.14613 12.3C4.24501 12.3132 4.34388 12.3132 4.44276 12.3132C6.63777 12.3132 8.83278 12.3132 11.0278 12.3132C11.1596 12.3132 11.2915 12.3132 11.4167 12.2802C11.7001 12.2077 11.8781 11.9506 11.8649 11.6672C11.8517 11.364 11.6342 11.1333 11.331 11.1003C11.2124 11.0871 11.0871 11.0871 10.9685 11.0871C9.89403 11.0871 8.83278 11.0871 7.77153 11.0871ZM13.5919 5.51719C12.3989 4.32411 11.1794 3.10466 9.97972 1.89839C9.97972 2.76189 9.97313 3.69131 9.97972 4.62073C9.98632 5.14806 10.2763 5.49083 10.7971 5.50401C11.7661 5.53697 12.7284 5.51719 13.5919 5.51719ZM6.18295 15.4112C6.80915 15.4112 7.43536 15.4178 8.06156 15.4112C8.56252 15.4046 8.85915 15.0553 8.76027 14.6334C8.68777 14.3302 8.43069 14.1456 8.0286 14.1456C6.80915 14.139 5.5897 14.139 4.37684 14.1456C3.90884 14.1456 3.61221 14.4027 3.61221 14.7784C3.61221 15.1542 3.91543 15.4112 4.37684 15.4112C4.97668 15.4112 5.58311 15.4112 6.18295 15.4112Z" fill="white"/>
</svg>
