<svg width="18" height="19" viewBox="0 0 18 19" fill="none" xmlns="http://www.w3.org/2000/svg">
<path d="M3.49591 -0.00012207C3.78504 0.291353 4.07041 0.587052 4.36564 0.871957C4.46796 0.970992 4.45904 1.0306 4.36235 1.12588C3.86905 1.61121 3.38138 2.10263 2.89231 2.59218C2.84725 2.63724 2.805 2.68464 2.75384 2.73956C2.83082 2.78555 2.90169 2.76772 2.96787 2.76772C5.83616 2.76866 8.70491 2.79635 11.5732 2.76021C13.9731 2.7297 16.1561 4.46071 16.5499 6.94177C16.6536 7.59419 16.5893 8.25318 16.6015 8.90888C16.6029 8.99102 16.5588 9.02293 16.4809 9.02293C16.088 9.02247 15.6947 9.02106 15.3018 9.02387C15.185 9.02481 15.1699 8.95722 15.1704 8.86429C15.1718 8.50663 15.1742 8.14851 15.1699 7.79085C15.162 7.13468 15.0291 6.50808 14.6818 5.94297C14.058 4.92867 13.1596 4.34337 11.9651 4.22509C11.7717 4.20585 11.5793 4.20116 11.3859 4.20116C8.58804 4.20116 5.78969 4.20116 2.99181 4.20116C2.92188 4.20116 2.85194 4.20116 2.77121 4.20116C2.77543 4.28517 2.83645 4.3185 2.87776 4.36027C3.36589 4.85076 3.85215 5.34359 4.34827 5.82656C4.46796 5.94297 4.45951 6.01055 4.34452 6.11898C4.08402 6.36446 3.83291 6.61932 3.58462 6.877C3.4945 6.97087 3.43395 6.97087 3.34149 6.87794C2.25256 5.78432 1.16223 4.69305 0.067672 3.606C-0.0529546 3.48632 0.00759341 3.42483 0.0948951 3.338C1.15378 2.28193 2.21126 1.22351 3.26874 0.165563C3.32271 0.111587 3.3734 0.0552629 3.4255 -0.00012207C3.44897 -0.00012207 3.47244 -0.00012207 3.49591 -0.00012207Z" fill="white"/>
<path d="M14.4797 18.0235C14.1906 17.732 13.9057 17.4363 13.6105 17.151C13.5077 17.0519 13.5175 16.9923 13.6142 16.8975C14.1075 16.4122 14.5952 15.9208 15.0843 15.4307C15.1289 15.3857 15.1711 15.3383 15.2185 15.2881C15.1462 15.2308 15.074 15.2557 15.0078 15.2557C12.1273 15.2543 9.2468 15.2327 6.36725 15.2613C4.02654 15.2848 1.82005 13.5913 1.4225 11.0628C1.32159 10.4222 1.38777 9.77444 1.37369 9.13047C1.37181 9.04505 1.40608 8.99952 1.49713 8.99999C1.88999 9.0014 2.28332 9.00234 2.67617 8.99952C2.81041 8.99858 2.80384 9.08682 2.80619 9.17788C2.81698 9.64677 2.79586 10.1152 2.82872 10.5846C2.93808 12.1438 4.11994 13.4707 5.66556 13.7523C5.90822 13.7964 6.15276 13.8218 6.39964 13.8218C9.27403 13.8218 12.1484 13.8218 15.0228 13.8218C15.081 13.8218 15.1387 13.8218 15.2091 13.8218C15.1988 13.7373 15.1392 13.703 15.0974 13.6608C14.6051 13.1661 14.1141 12.6695 13.6147 12.1818C13.5044 12.0743 13.5213 12.0119 13.6227 11.9157C13.8776 11.673 14.1282 11.4257 14.3685 11.1685C14.4816 11.0474 14.5511 11.0582 14.6633 11.1708C15.7254 12.2405 16.7932 13.305 17.8592 14.3709C17.9047 14.4165 17.953 14.4587 18.0004 14.5028C18.0004 14.5263 18.0004 14.5497 18.0004 14.5732C17.8127 14.7577 17.624 14.9412 17.4381 15.1275C16.475 16.0925 15.5133 17.058 14.5506 18.023C14.5267 18.0235 14.5032 18.0235 14.4797 18.0235Z" fill="white"/>
</svg>
