<svg width="15" height="15" viewBox="0 0 15 15" fill="none" xmlns="http://www.w3.org/2000/svg">
<path d="M7.5107 0.000292674C9.42215 0.000292674 11.3336 -0.000745312 13.2445 0.000811667C14.322 0.00184965 14.9951 0.67187 14.9972 1.74411C14.9992 2.81635 14.9697 3.89014 15.006 4.96135C15.0382 5.90072 14.2618 6.70983 13.2471 6.71295C12.4167 6.71554 11.5863 6.71399 10.7565 6.71399C7.78161 6.71399 4.80623 6.71554 1.83136 6.71295C1.0757 6.71243 0.498066 6.39999 0.149303 5.70973C0.0496559 5.512 0.0128074 5.30181 0.0133264 5.08227C0.0143644 3.92336 0.0076175 2.76445 0.0159214 1.60554C0.0216303 0.718579 0.73317 0.00652059 1.62117 0.00340663C3.58452 -0.00334028 5.54787 0.00133066 7.5107 0.00133066C7.5107 0.000811667 7.5107 0.000811667 7.5107 0.000292674Z" fill="white"/>
<path d="M7.51156 14.986C5.60011 14.986 3.68814 14.9544 1.77773 14.9995C0.800981 15.0224 -0.0434209 14.1925 0.00173148 13.2251C0.0510358 12.172 0.0458459 11.1138 0.00380745 10.0608C-0.037193 9.04303 0.802018 8.2661 1.80627 8.27077C3.66582 8.27908 5.52537 8.27285 7.38441 8.27285C9.33011 8.27285 11.2763 8.26714 13.222 8.27596C13.9683 8.27908 14.5325 8.60916 14.8688 9.29215C14.9627 9.4821 14.9975 9.68503 14.9975 9.89574C14.997 11.0635 15.0043 12.2307 14.9949 13.3984C14.9877 14.2683 14.274 14.9673 13.4011 14.9855C13.3751 14.986 13.3492 14.9865 13.3232 14.9865C11.3858 14.986 9.44896 14.986 7.51156 14.986Z" fill="white"/>
</svg>
