<svg width="21" height="18" viewBox="0 0 21 18" fill="none" xmlns="http://www.w3.org/2000/svg">
<path d="M20.8915 1.19066C20.8264 1.93721 20.631 2.66359 20.4812 3.39669C19.7517 6.96804 19.0092 10.5394 18.2666 14.1107C18.0777 15.0322 17.8823 15.9469 17.6934 16.8683C17.6739 16.9692 17.6479 17.0633 17.6153 17.1575C17.3482 17.9578 16.7881 18.2067 16.0521 17.8233C15.5505 17.5543 15.1272 17.1642 14.6647 16.8212C13.5835 16.0141 12.5023 15.2003 11.4406 14.373C11.1931 14.1847 11.0433 14.2116 10.8348 14.4269C10.177 15.0994 9.50611 15.7518 8.84175 16.4109C8.65937 16.5925 8.477 16.7607 8.22949 16.8414C7.89079 16.949 7.80612 16.8952 7.83217 16.532C7.89731 15.5164 7.97547 14.5008 8.04711 13.4853C8.07968 13.0414 8.11876 12.5907 8.1383 12.1468C8.14482 11.9383 8.21646 11.7904 8.36627 11.6491C10.9586 9.24806 13.5509 6.84698 16.1433 4.43918C16.4233 4.17687 16.7099 3.91457 16.99 3.65227C17.0682 3.57829 17.1919 3.49758 17.1333 3.37651C17.0682 3.242 16.9184 3.28235 16.8141 3.32271C16.6513 3.38324 16.495 3.47067 16.3517 3.56483C12.8475 5.82467 9.33677 8.09124 5.83908 10.3645C5.60459 10.5192 5.40919 10.5461 5.14214 10.4587C3.74828 9.99461 2.3479 9.55071 0.947518 9.10682C0.719549 9.03283 0.491581 8.95885 0.289665 8.81761C-0.0555444 8.57549 -0.0946247 8.21902 0.185451 7.90291C0.39388 7.67424 0.654415 7.53973 0.927978 7.43212C3.82644 6.28202 6.71838 5.13192 9.61684 3.98855C12.8735 2.69049 16.1237 1.40588 19.3804 0.121272C20.0904 -0.154482 20.631 0.0472892 20.8329 0.652603C20.8915 0.827471 20.885 1.00907 20.8915 1.19066Z" fill="black"/>
</svg>
