<svg width="18" height="17" viewBox="0 0 18 17" fill="none" xmlns="http://www.w3.org/2000/svg">
<path d="M8.98165 0.0015132C10.1196 0.0015132 11.2575 0.0015132 12.4015 0.0015132C13.2004 0.0015132 13.8178 0.322311 14.2234 1.03049C15.3916 3.05817 16.5719 5.07375 17.74 7.10144C18.1274 7.7733 18.0608 8.44516 17.6795 9.11096C16.6808 10.83 15.6942 12.5489 14.6955 14.2679C14.52 14.5706 14.3444 14.8793 14.1628 15.1819C13.7936 15.7993 13.2307 16.1019 12.5286 16.108C10.168 16.1201 7.80741 16.1261 5.45288 16.108C4.70233 16.1019 4.13942 15.7388 3.7581 15.073C2.6928 13.2208 1.61541 11.3808 0.544064 9.5286C0.314058 9.12912 0.0356297 8.75385 0.00536574 8.26357C-0.0188454 7.87014 0.0356297 7.50092 0.235372 7.15591C1.42777 5.08586 2.62017 3.0158 3.81862 0.951801C4.18784 0.310205 4.77496 0.0136188 5.5013 0.00756599C6.66343 -0.00453959 7.81952 0.0015132 8.98165 0.0015132ZM8.98165 11.06C10.7491 10.9934 11.9778 9.71019 11.9838 8.01541C11.9959 6.41142 10.6038 5.06165 9.01797 5.05559C7.36556 5.04954 5.9492 6.43563 5.99763 8.08199C6.0521 9.80098 7.31713 10.9873 8.98165 11.06Z" fill="white"/>
</svg>
