<svg width="32" height="26" viewBox="0 0 32 26" fill="none" xmlns="http://www.w3.org/2000/svg">
<path d="M3.65907 10.2057C4.43921 10.193 5.06088 10.5373 5.59723 11.1112C7.26721 12.8713 8.96157 14.6186 10.6194 16.3914C11.0094 16.8123 11.2288 16.7995 11.6311 16.3914C16.5191 11.2515 21.4194 6.13717 26.3074 1.01005C26.9047 0.372344 27.5752 -0.0357851 28.4528 0.00247705C29.8912 0.0534932 32 2.2982 32 3.79043C32 4.61944 31.6343 5.28265 31.0736 5.86934C28.2822 8.77726 25.5029 11.6979 22.7237 14.6186C19.335 18.1642 15.9462 21.7099 12.5575 25.2555C11.6067 26.2503 10.6681 26.2503 9.70514 25.2427C6.77962 22.1818 3.84192 19.1208 0.928592 16.0343C-0.351321 14.6824 -0.290373 13.2539 1.00173 11.9148C1.33085 11.5704 1.65997 11.2133 2.00128 10.8817C2.46449 10.4353 3.02521 10.193 3.65907 10.2057Z" fill="white"/>
</svg>
