<svg width="16" height="21" viewBox="0 0 16 21" fill="none" xmlns="http://www.w3.org/2000/svg">
<path d="M8.50859 17.2346C6.47257 17.2346 4.43655 17.2346 2.40052 17.2346C1.85265 17.2346 1.31218 17.1969 1.05305 16.6015C0.793916 15.9911 1.06785 15.5088 1.53429 15.1621C2.37831 14.5291 2.63744 13.7227 2.5634 12.6601C2.47456 11.3262 2.49677 9.96967 2.556 8.62823C2.65225 6.49549 3.46666 4.71695 5.25836 3.48855C5.63595 3.22478 6.05056 3.01377 6.49478 2.90826C6.90198 2.81029 7.00564 2.59174 6.99083 2.19232C6.96862 1.32566 7.44986 0.722766 8.23465 0.579579C9.10829 0.413783 9.96712 1.11465 9.99674 2.01899C10.0041 2.14711 10.0115 2.26769 9.99674 2.3958C9.96712 2.65203 10.0782 2.77261 10.3225 2.84797C12.5584 3.58652 13.7874 5.21434 14.2909 7.49027C14.4242 8.1007 14.439 8.71113 14.439 9.32156C14.439 10.7911 14.4464 12.2607 14.4316 13.7302C14.4316 14.0015 14.4982 14.2125 14.6981 14.3934C15.0091 14.6798 15.2904 14.9963 15.5865 15.2978C15.9419 15.652 16.1122 16.0589 15.9197 16.5563C15.7198 17.0688 15.2978 17.2346 14.7869 17.2346C13.5505 17.2346 12.3215 17.2346 11.0851 17.2346C10.2411 17.2346 9.37483 17.2346 8.50859 17.2346Z" fill="white"/>
<path d="M8.5004 18.1241C9.04087 18.1241 9.58134 18.1316 10.1218 18.1241C10.4476 18.1166 10.5216 18.2447 10.4624 18.5612C10.2847 19.5183 9.42586 20.2568 8.47078 20.2418C7.49349 20.2267 6.66428 19.5032 6.49399 18.5386C6.44216 18.2371 6.53841 18.1241 6.83456 18.1241C7.39724 18.1241 7.95252 18.1241 8.5004 18.1241Z" fill="white"/>
<circle cx="13" cy="6" r="3" fill="#EE4B02"/>
</svg>
