<svg width="18" height="18" viewBox="0 0 18 18" fill="none" xmlns="http://www.w3.org/2000/svg">
<path d="M0 8.71875C0 7.93371 0 7.14832 0 6.36328C0.00738281 6.31125 0.0182813 6.25957 0.0210938 6.20754C0.0632813 5.43516 0.180352 4.67262 0.300938 3.90902C0.586055 2.10375 2.21238 0.691523 3.6682 0.39375C4.5007 0.223242 5.34762 0.159258 6.19348 0.0931641C6.6368 0.0587109 7.08012 0.0309375 7.52344 0C8.50781 0 9.49219 0 10.4766 0C10.5286 0.00703125 10.5803 0.0182812 10.6323 0.0203906C11.7847 0.0689062 12.9393 0.133242 14.0716 0.349805C15.8537 0.69082 17.0293 1.76309 17.5954 3.48293C17.7599 3.9825 17.8098 4.51336 17.8703 5.03684C17.9212 5.47805 17.9575 5.92102 18 6.36328C18 7.14832 18 7.93371 18 8.71875C17.993 8.7648 17.9817 8.81051 17.9796 8.85691C17.9409 9.63562 17.8196 10.4034 17.6991 11.173C17.422 12.9393 15.8214 14.3849 14.3132 14.6921C13.5204 14.8539 12.7139 14.9115 11.9095 14.9811C11.7573 14.9941 11.6663 15.0465 11.5857 15.1724C11.1009 15.9332 10.5908 16.6767 10.0445 17.3957C9.83285 17.6741 9.58184 17.8907 9.24609 18C9.08191 18 8.91809 18 8.75391 18C8.41184 17.8882 8.16012 17.6639 7.94496 17.3813C7.39828 16.663 6.89273 15.9166 6.40336 15.1587C6.34465 15.0676 6.28769 14.9952 6.16148 14.9854C5.51426 14.9347 4.86879 14.8658 4.22438 14.7825C2.53301 14.5635 1.34473 13.6494 0.598711 12.144C0.273867 11.4887 0.228516 10.7575 0.131836 10.0452C0.0717188 9.60504 0.0428906 9.16102 0 8.71875ZM8.06133 9.04254C8.06133 9.15996 8.0557 9.27738 8.06238 9.3941C8.09332 9.92707 8.64668 10.3444 9.16875 10.2312C9.63844 10.1292 9.9457 9.7773 9.93516 9.29672C9.92637 8.88469 10.0881 8.58656 10.4252 8.36824C10.5188 8.30777 10.608 8.24133 10.7019 8.18156C11.0081 7.98645 11.314 7.79062 11.5928 7.55613C12.1792 7.06289 12.5336 6.44695 12.5321 5.67035C12.5307 4.71797 12.1054 3.97828 11.3077 3.46781C10.4766 2.9359 9.55934 2.8227 8.60484 3.00445C7.39195 3.23543 6.52816 3.90551 6.08484 5.07902C5.99766 5.30965 5.96953 5.54238 6.04406 5.7832C6.16395 6.17027 6.5141 6.46277 6.89871 6.49266C7.36559 6.52852 7.73332 6.33094 7.92527 5.93754C7.96359 5.85879 7.99348 5.77547 8.02266 5.69285C8.37492 4.70144 9.59625 4.6582 10.144 5.00027C10.5479 5.25234 10.6386 5.78145 10.3511 6.18645C10.2379 6.3457 10.0937 6.47648 9.93305 6.58477C9.66129 6.76793 9.37934 6.93668 9.10863 7.1216C8.43539 7.58356 8.00578 8.18227 8.06133 9.04254ZM9.02566 11.2015C8.85832 11.2127 8.69414 11.2148 8.53207 11.2366C8.23852 11.2764 8.07012 11.4441 8.02406 11.7334C7.97203 12.0589 7.97449 12.3852 8.02547 12.7107C8.06801 12.9818 8.24906 13.1629 8.52258 13.2008C8.8425 13.2455 9.16383 13.2448 9.4834 13.1991C9.75656 13.16 9.93059 12.9811 9.97488 12.7034C10.028 12.3718 10.0252 12.0396 9.97102 11.7088C9.93234 11.4718 9.79348 11.3217 9.5618 11.2567C9.38496 11.2068 9.20109 11.2314 9.02566 11.2015Z" fill="white"/>
</svg>
