<svg width="400" height="400" xmlns="http://www.w3.org/2000/svg">
  <defs>
    <linearGradient id="gradient" x1="0%" y1="0%" x2="100%" y2="100%">
      <stop offset="0%" stop-color="#9148d9" stop-opacity="0.2"/>
      <stop offset="100%" stop-color="#ff8067" stop-opacity="0.2"/>
    </linearGradient>
  </defs>
  <rect width="100%" height="100%" fill="url(#gradient)"/>
  <g fill="none" stroke="#ffffff" stroke-width="0.5" stroke-opacity="0.1">
    <path d="M0,50 L400,50"/>
    <path d="M0,100 L400,100"/>
    <path d="M0,150 L400,150"/>
    <path d="M0,200 L400,200"/>
    <path d="M0,250 L400,250"/>
    <path d="M0,300 L400,300"/>
    <path d="M0,350 L400,350"/>
    <path d="M50,0 L50,400"/>
    <path d="M100,0 L100,400"/>
    <path d="M150,0 L150,400"/>
    <path d="M200,0 L200,400"/>
    <path d="M250,0 L250,400"/>
    <path d="M300,0 L300,400"/>
    <path d="M350,0 L350,400"/>
  </g>
</svg>
